<svg xmlns="http://www.w3.org/2000/svg" width="103.545" height="93.449"><path data-name="Path 331" d="M96.07 45.584h-3.905v-3.321a12.227 12.227 0 10-12.177-20.4v-3.444a14.826 14.826 0 00-26.842-8.706A12.227 12.227 0 0028.954 12.2v.299a12.254 12.254 0 008.111 11.194l-.473 2.807-.933.373-4.826 1.94a14.826 14.826 0 00-29.627.9L.72 57.8a.845.845 0 00.684.833h.161v4.776a5.732 5.732 0 001.243 3.557L.011 84.889a.833.833 0 00.833.97h6.07v4.415a3.172 3.172 0 003.172 3.172h.646a3.173 3.173 0 003.135-3.172V86.78h3.856v3.495a3.173 3.173 0 003.172 3.172h.605a3.172 3.172 0 003.172-3.172v-4.416h4.3l.062.373a.845.845 0 00.821.684h.56v3.359a3.172 3.172 0 003.172 3.172h.613a3.172 3.172 0 003.172-3.172v-3.359h.448a.847.847 0 00.834-.7l2.487-14.764 2.49 14.768a.845.845 0 00.833.7h.448v3.359a3.171 3.171 0 003.171 3.172h.61a3.172 3.172 0 003.234-3.172v-3.363h.559a.832.832 0 00.821-.684 57.51 57.51 0 00.871-6.7h2.352v10.743a3.172 3.172 0 003.17 3.172h.609a3.172 3.172 0 003.172-3.172V79.529h2.861v10.746a3.173 3.173 0 003.172 3.172h.61a3.171 3.171 0 003.176-3.172V79.529h2.11a57.557 57.557 0 00.871 6.7.833.833 0 00.821.684h.56v3.359a3.172 3.172 0 003.172 3.172h.609a3.172 3.172 0 003.234-3.172v-3.355h.448a.845.845 0 00.821-.646l2.487-10.522L90.92 86.27a.845.845 0 00.822.646h.448v3.359a3.171 3.171 0 003.171 3.172h.61a3.173 3.173 0 003.259-3.172v-3.358h.56a.832.832 0 00.821-.684 59.955 59.955 0 001.045-11.344 62.343 62.343 0 00-.472-7.587 5.747 5.747 0 001.529-3.893v-7.96a.844.844 0 00.833-.833v-1.543a7.462 7.462 0 00-7.475-7.488zm-2.811 1.679a4.851 4.851 0 01-9.566 0h1.941a.846.846 0 00.833-.833V42.7a12.1 12.1 0 004.018 0v3.73a.845.845 0 00.833.833zm-47.614-16.17a.816.816 0 00.149-.285l1.006-1.916 1.02.559-.109 4.449-2.015.921a.833.833 0 00-.485.647l-.261 1.766H42.6zm-.361-7.3a12.258 12.258 0 004.975-3.359l-.223 7.466-3.371-.983-.97-.436zm-.846 5.946h-6.53l-.771-1.539.522-.212a.847.847 0 00.522-.646l.51-3.1a12.258 12.258 0 004.975 0l.448 2.972a.833.833 0 00.485.647l.646.286zm-.846 1.679l-2.487 4.862-2.487-4.863zM42 38.979h3.621a.846.846 0 00.821-.721l.361-2.09 2.077-.946a.835.835 0 00.485-.746L49.5 29.5l.548.161-.161 5.41a.723.723 0 000 .124.846.846 0 00.846.834h3.905a9.6 9.6 0 00-3.333 7.6v11.818h-9.292zM53.194 34.4c1.89-1.356 3.993-3.184 3.993-4.59v-1.043a12.165 12.165 0 004.4 2.264v3.383zm4.056-7.935v-5.3c7.065 0 13.035-2.04 15.809-5.037v9.792a10.433 10.433 0 01-6.8 3.731h-2.678a10.5 10.5 0 01-6.331-3.185zm2.7 10.012h2.487a.847.847 0 00.846-.846v-4.277h.136a12.349 12.349 0 001.443.088 12.606 12.606 0 001.468-.088h.4v4.291a.846.846 0 00.846.834h2.252v2.8h-9.953zm8.508-2.1v-3.445a12.058 12.058 0 004.6-2.6v1.455c0 .448 0 1.816 3.644 4.59zm9.266 2.04l-1.07-.347h.846zm-6.219 0h.2a34.939 34.939 0 017.736 2.389 12.249 12.249 0 005.31 3.394v2.487L74.664 42a5.425 5.425 0 00-3.147-2.575zm4.167 11.193l-.4-3.732 6 1.6h-.386a7.463 7.463 0 00-5.161 2.177zm21.8-22.486A10.547 10.547 0 1177.9 30.572v-.436h7.674a5.907 5.907 0 004.851-2.574v1.766a.845.845 0 00.833.845c3.533-.075 5.423-2.861 6.219-5.049zm-9-5.063a10.511 10.511 0 017.724 3.4c0 .187-.846 4.217-4.03 4.913v-4.73a.846.846 0 00-1.666-.149s-.97 4.975-4.863 4.975h-7.466a10.572 10.572 0 0110.3-8.408zM52.013 17.91a12.153 12.153 0 001.381-5.286v-.087a13.147 13.147 0 0124.876 5.9v5.224a.88.88 0 000 .149 12.016 12.016 0 00-2 8.1c-1.517-1.393-1.58-2.015-1.58-2.1V12.263a.846.846 0 10-1.679 0c0 3.918-7.277 7.226-15.883 7.226a.831.831 0 00-.534.2.824.824 0 00-.236 0 .846.846 0 00-.846.846v6.492h-.063l.063.075v2.687c0 .572-1.791 2.2-4 3.732l.448-15.088a1.728 1.728 0 00.053-.523zM41.179 1.74a10.562 10.562 0 0110.51 9.951 4.863 4.863 0 01-3.981-4.776.846.846 0 00-.846-.846H35.483a.846.846 0 00-.834.846 4.863 4.863 0 01-4.017 4.69A10.559 10.559 0 0141.18 1.7zM30.632 13.308a6.544 6.544 0 005.585-5.622h9.826a6.543 6.543 0 005.162 5.547 14.659 14.659 0 00-.9 4.2 10.534 10.534 0 01-19.677-4.129zm4.975 15.585l4.193 8.382h-2.327l-.287-2.6a.845.845 0 00-.647-.721L34.7 33.52l-.138-4.02zm-4.739 1.8l2.065-.834.187 4.3a.847.847 0 00.646.8l1.891.448.3 2.749a.845.845 0 00.821.746H40.4v16.545h-9.532zM2.472 52.961l.4-23.2a13.153 13.153 0 1126.306 0v23.126c-1.753-5.1-3.569-10.7-3.569-11.7V23.645a.846.846 0 00-.846-.846h-.286a.833.833 0 00-.982.672c0 .186-.846 4.217-4.03 4.913v-4.739A.846.846 0 0017.8 23.5s-.97 4.975-4.863 4.975H7.248a.846.846 0 00-.848.825.866.866 0 000 .249V41.1c.05.945-1.89 6.579-3.93 11.865zm26.02 2.985c-.124 1.654-.224 4.3-.3 7.14l-2-12.861a5.538 5.538 0 00-.535-1.629l.361.187c.883 2.6 1.8 5.312 2.475 7.214zM18.056 29.937a.831.831 0 00.585.236 6.292 6.292 0 005.3-3.333v10.411a10.548 10.548 0 01-15.809.559v-7.624h4.814a5.92 5.92 0 004.851-2.575v1.717a.834.834 0 00.261.609zM12.1 42.263v3.321h-2a.83.83 0 00-.422.112 5.427 5.427 0 00-1.829.746 6.543 6.543 0 00-1.243.2 30.059 30.059 0 001.567-5.46v-1.045a12.2 12.2 0 003.927 2.126zm.634 4.975h.2a.845.845 0 00.846-.833v-3.732a12.188 12.188 0 002 .161 12.391 12.391 0 002-.161V46.4a.845.845 0 00.846.833h1.94a4.851 4.851 0 01-9.565 0zm6.7-1.654v-3.309a12.054 12.054 0 004.466-2.487v1.455a30.69 30.69 0 001.455 5.5 6.624 6.624 0 00-1.642-.249 5.441 5.441 0 00-1.791-.8.834.834 0 00-.424-.112zM5.419 49.626a5.586 5.586 0 00-.137.6l-2.114 13.68a3.906 3.906 0 010-.473v-7.662c.7-1.679 1.543-3.918 2.35-6.157zM10.73 91.78h-.609a1.492 1.492 0 01-1.48-1.331H12.2a1.493 1.493 0 01-1.47 1.331zm1.492-3.01H8.59v-2.91h.436v.075a.846.846 0 00.846.846h2.313zm9.316 3.01h-.608a1.494 1.494 0 01-1.493-1.331h3.557A1.492 1.492 0 0121.5 91.78zm1.492-3.01h-3.593v-1.99h2.836a.835.835 0 00.759-.486zm.075-4.59V71.743a.84.84 0 00-1.68 0V85.1H10.73V71.73a.84.84 0 10-1.679 0v12.438H1.825L7 50.474a3.732 3.732 0 012.314-2.923 6.53 6.53 0 0012.861 0 3.731 3.731 0 012.363 2.923l5.224 33.707zM34.3 91.768h-.609a1.492 1.492 0 01-1.48-1.331h3.558A1.494 1.494 0 0134.2 91.78zm1.492-3.01H32.1v-1.842h3.595zm13.06 3.01h-.608a1.492 1.492 0 01-1.48-1.331h3.557a1.493 1.493 0 01-1.568 1.344zm1.492-3.01h-3.692v-1.842h3.595zm2.264-9.5a56.872 56.872 0 01-.734 5.971h-6.641L42 66.307a.834.834 0 00-1.655 0l-3.234 18.919h-5.56a.839.839 0 000-.349l-1.878-12.128v-.062c0-4.167.161-10.112.336-14.055h.137a.834.834 0 00.7-.821v-.622h20.47a8.866 8.866 0 001.616 4.366l-.646 17.115a.845.845 0 00.236.6zm.585-22.24v.56a8.483 8.483 0 01-.136-1.517V43.62c0-3.956 2.3-7.177 5.137-7.177h.2v3.023a5.46 5.46 0 00-3.732 4.428zm7.214 34.74H59.8a1.492 1.492 0 01-1.48-1.331h3.408a1.494 1.494 0 01-1.419 1.356zm1.492-3.01h-3.693v-9.219H61.8zm8.308 3.01H69.6a1.491 1.491 0 01-1.479-1.331h3.557a1.494 1.494 0 01-1.555 1.356zm1.492-3.01H68.02v-9.219h3.595zM54 77.838l.771-20.672 1.393-13.035a3.732 3.732 0 013.736-3.209h9.951a3.731 3.731 0 013.731 3.171l.585 5.522a7.458 7.458 0 00-.846 3.432v1.58a.847.847 0 00.833.834v7.947a5.76 5.76 0 001.531 3.906 62.419 62.419 0 00-.461 7.574q0 1.493.062 2.96zm21.918-14.429v-7.96h1.306c-.3 1.716-.921 5.286-1.244 8-.062.011-.062-.015-.062-.04zM81.5 91.768h-.609a1.492 1.492 0 01-1.48-1.331h3.557a1.494 1.494 0 01-1.468 1.344zm1.5-3.01h-3.6v-1.841H83zm13.06 3.01h-.609a1.492 1.492 0 01-1.48-1.331h3.557a1.494 1.494 0 01-1.468 1.344zm1.492-3.01h-3.599v-1.841h3.595zm1.493-3.52h-6.559l-3.2-13.284a.846.846 0 00-1.629 0l-3.2 13.284H77.9a58.713 58.713 0 01-.887-10.338 60.413 60.413 0 01.5-7.811h21.963a60.572 60.572 0 01.5 7.811 58.741 58.741 0 01-.933 10.336zm1.99-21.829v.161c-.385-2.711-1.007-6.356-1.244-8.084h1.244zm.834-9.6h-3.152a.846.846 0 00-.821.982c0 .075 1.244 7.326 1.679 10.61h-22.2c.361-3.284 1.679-10.535 1.692-10.61a.844.844 0 00-.821-.994h-3.174v-.747a5.809 5.809 0 015.809-5.809H82a6.53 6.53 0 0012.948 0h1.119a5.807 5.807 0 015.809 5.809z" fill="#26508e"/></svg>