<svg xmlns="http://www.w3.org/2000/svg" width="98.764" height="88.732"><defs><clipPath id="a"><path data-name="Rectangle 65" fill="none" d="M0 0h98.764v88.732H0z"/></clipPath></defs><g data-name="Group 385"><g data-name="Group 304" clip-path="url(#a)"><path data-name="Path 272" d="M38.581 53.633a1.544 1.544 0 001.736-2.555 25.619 25.619 0 00-7.276-3.425 13.424 13.424 0 006.312-11.389V18.517a6.944 6.944 0 00-6.944-6.944H19.291a6.944 6.944 0 00-6.944 6.944v17.747a13.391 13.391 0 006.327 11.335A25.579 25.579 0 000 72.529a1.543 1.543 0 003.087 0 22.715 22.715 0 0135.493-18.9M15.434 18.517a3.858 3.858 0 013.857-3.857h13.118a3.858 3.858 0 013.857 3.857v5.4H15.434zm0 17.747v-9.256h20.832v9.259a10.231 10.231 0 01-10.105 10.351h-.218a10.447 10.447 0 01-10.509-10.354" fill="#6795cf"/><path data-name="Path 273" d="M71.064 51.2a18.307 18.307 0 009.953-16.48V9.259A9.16 9.16 0 0071.96 0H53.241c-5.4 0-10.031 4.243-10.031 9.259v25.463A18.46 18.46 0 0053.734 51.21a37.1 37.1 0 00-28.271 35.98 1.543 1.543 0 003.087 0A33.949 33.949 0 0147.198 56.9a33.184 33.184 0 00-.987 5.771 10 10 0 00-7.632 9.858V84.1a5.083 5.083 0 004.629 4.629 1.543 1.543 0 000-3.087 2.247 2.247 0 01-1.541-1.542V72.529c0-3.765 2.823-6.944 6.172-6.944s6.172 3.179 6.172 6.944V84.1a2.249 2.249 0 01-1.543 1.543 1.543 1.543 0 000 3.087 5.083 5.083 0 004.63-4.63V72.529a9.975 9.975 0 00-7.785-9.885 22.867 22.867 0 011.705-7.229l9.937 13.541a1.547 1.547 0 002.494 0L73.364 55.4c2.4 4.136 3.379 10.471 3.711 13.288a6.812 6.812 0 103.085-.07 49.253 49.253 0 00-2.684-11.7 34.067 34.067 0 0118.2 30.27 1.543 1.543 0 003.087 0A36.959 36.959 0 0071.064 51.2m6.867-24.8c-8.387-.347-13.8-2.871-16.766-4.8H77.93zM46.297 9.259c0-3.286 3.248-6.172 6.944-6.172h18.517A6.1 6.1 0 0177.93 9.12v9.398H46.297zm0 25.463V21.6h9.944c1.173 1.234 7.716 7.354 21.689 7.886v5.232a15.268 15.268 0 01-15.105 15.435H62.5c-8.935 0-16.2-6.944-16.2-15.431m15.879 30.716l-8.168-11.125a33.7 33.7 0 018.488-1.073 32.544 32.544 0 017.9.979zm20.32 9.846a3.734 3.734 0 11-3.743-3.726h.007a3.734 3.734 0 013.735 3.726" fill="#26508e"/><path data-name="Path 274" d="M66.357 9.258h-2.315V6.944a1.543 1.543 0 00-3.087 0v2.314h-2.314a1.543 1.543 0 000 3.087h2.315v2.315a1.543 1.543 0 003.087 0v-2.315h2.315a1.543 1.543 0 000-3.087" fill="#33518f"/></g></g></svg>