<svg data-name="Group 383" xmlns="http://www.w3.org/2000/svg" width="90" height="89.999"><defs><clipPath id="a"><path data-name="Rectangle 67" fill="#26508e" d="M0 0h90v89.999H0z"/></clipPath></defs><g data-name="Group 306" clip-path="url(#a)"><path data-name="Path 278" d="M44.999 17.869a14.622 14.622 0 1014.622 14.622 14.639 14.639 0 00-14.622-14.622m0 26.8a12.182 12.182 0 1112.182-12.182 12.2 12.2 0 01-12.182 12.182" fill="#6694ce"/><path data-name="Path 279" d="M51.252 31.271h-5.034v-5.034a1.22 1.22 0 10-2.44 0v5.034h-5.036a1.22 1.22 0 100 2.441h5.034v5.034a1.22 1.22 0 002.44 0v-5.034h5.034a1.22 1.22 0 100-2.441" fill="#6694ce"/><path data-name="Path 280" d="M88.78 46.46H68.556v-33.3h2.711A4.442 4.442 0 0075.7 8.725V4.437A4.442 4.442 0 0071.267 0H18.732A4.442 4.442 0 0014.3 4.437v4.288a4.442 4.442 0 004.437 4.436h2.711v33.3H1.22A1.222 1.222 0 000 47.68v7.148a1.222 1.222 0 001.22 1.22h2.354v32.73A1.222 1.222 0 004.794 90h80.412a1.222 1.222 0 001.22-1.22V56.048h2.354A1.222 1.222 0 0090 54.827V47.68a1.222 1.222 0 00-1.22-1.22m-35.172 41.1H46.22V61.409h7.388zm-9.828 0h-7.388V61.409h7.388zm12.268-26.15H58.4a1.22 1.22 0 000-2.44H31.6a1.22 1.22 0 100 2.44h2.353v26.15H23.884v-74.4h42.232v74.4H56.048zM21.443 67.9H6.014v-4.7h15.429zm0 7.148H6.014v-4.704h15.429zm0 12.508H6.014V77.491h15.429zm0-26.8H6.014v-4.708h15.429zm0-7.148h-19V48.9h19zM73.264 8.725a2 2 0 01-2 2H18.732a2 2 0 01-2-2V4.436a2 2 0 012-2h52.535a2 2 0 012 2zm10.722 78.833H68.557V77.49h15.429zm0-12.508h-15.43v-4.706h15.429zM68.556 63.2h15.429v4.7H68.556zm15.43-2.441H68.557v-4.711h15.429zm3.574-7.148h-19V48.9h19z" fill="#26508e"/></g></svg>